# AST/ASF file generated using VICON BodyLanguage
# -----------------------------------------------
:version 1.10
:name VICON
:units
  mass 1.0
  length 0.45
  angle deg
:documentation
   .ast/.asf automatically generated from VICON data using
   VICON BodyBuilder and BodyLanguage model FoxedUp or BRILLIANT.MOD
:root
   order TX TY TZ RX RY RZ
   axis XYZ
   position 0 0 0  
   orientation 0 0 0 
:bonedata
  begin
     id 1 
     name lhipjoint
     direction 0.528046 -0.759594 0.379717 
     length 2.39752 
     axis 0 0 0  XYZ
  end
  begin
     id 2 
     name lfemur
     direction 0.34202 -0.939693 0  
     length 7.31175  
     axis 0 0 20  XYZ
    dof rx ry rz
    limits (-160.0 20.0)
           (-70.0 70.0)
           (-60.0 70.0)
  end
  begin
     id 3 
     name ltibia
     direction 0.34202 -0.939693 0   
     length 7.52482   
     axis 0 0 20   XYZ
    dof rx
    limits (-10.0 170.0)
  end
  begin
     id 4 
     name lfoot
     direction 0.0675379 -0.185559 0.980309   
     length 2.00961   
     axis -90 7.62852e-016 20   XYZ
    dof rx rz
    limits (-45.0 90.0)
           (-70.0 20.0)
  end
  begin
     id 5 
     name ltoes
     direction 1.5352e-011 -4.22286e-011 1   
     length 1.01383   
     axis -90 7.62852e-016 20   XYZ
    dof rx
    limits (-90.0 20.0)
  end
  begin
     id 6 
     name rhipjoint
     direction -0.510274 -0.769251 0.384544   
     length 2.36742  
     axis 0 0 0  XYZ 
  end
  begin
     id 7 
     name rfemur
     direction -0.34202 -0.939693 0   
     length 7.45325   
     axis 0 0 -20   XYZ
    dof rx ry rz
    limits (-160.0 20.0)
           (-70.0 70.0)
           (-70.0 60.0)
  end
  begin
     id 8 
     name rtibia
     direction -0.34202 -0.939693 0   
     length 7.49587   
     axis 0 0 -20   XYZ
    dof rx
    limits (-10.0 170.0)
 end
 begin
     id 9 
     name rfoot
     direction -0.106475 -0.292536 0.950308   
     length 2.20898  
     axis -90 -7.62852e-016 -20   XYZ
    dof rx rz
    limits (-45.0 90.0)
           (-20.0 70.0)
  end
  begin
     id 10 
     name rtoes
     direction -1.53597e-011 -4.22023e-011 1   
     length 1.10065   
     axis -90 -7.62852e-016 -20   XYZ
    dof rx
    limits (-90.0 20.0)
  end
  begin
     id 11 
     name lowerback
     direction 0.0260024 0.998026 -0.0571652   
     length 2.11214   
     axis 0 0 0   XYZ
    dof rx ry rz
    limits (-20.0 45.0)
           (-30.0 30.0)
           (-30.0 30.0)
  end
  begin
     id 12 
     name upperback
     direction 0.0216202 0.999542 -0.0211766   
     length 2.11689   
     axis 0 0 0   XYZ
    dof rx ry rz
    limits (-20.0 45.0)
           (-30.0 30.0)
           (-30.0 30.0)
  end
  begin
     id 13 
     name thorax
     direction 0.00883312 0.999944 0.00589057   
     length 2.11821   
     axis 0 0 0   XYZ
    dof rx ry rz
    limits (-20.0 45.0)
           (-30.0 30.0)
           (-30.0 30.0)
  end
  begin
     id 14 
     name lowerneck
     direction -0.059386 0.994433 0.0870401   
     length 1.81176   
     axis 0 0 0   XYZ
    dof rx ry rz
    limits (-20.0 45.0)
           (-30.0 30.0)
           (-30.0 30.0)
  end
  begin
     id 15 
     name upperneck
     direction 0.0506457 0.97328 -0.223967   
     length 1.82382   
     axis 0 0 0   XYZ
    dof rx ry rz
    limits (-20.0 45.0)
           (-30.0 30.0)
           (-30.0 30.0)
  end
  begin
     id 16
     name head
     direction 0.0205902 0.996147 -0.0852487  
     length 1.84805  
     axis 0 0 0   XYZ
    dof rx ry rz
    limits (-20.0 45.0)
           (-30.0 30.0)
           (-30.0 30.0)
  end
  begin
     id 17 
     name lclavicle
     direction 0.949493 0.303881 -0.0782325  
     length 3.60584  
     axis 0 0 0   XYZ
    dof ry rz
    limits (-20.0 10.0)
           (0.0 20.0)
  end
  begin
     id 18 
     name lhumerus
     direction 1 -4.48965e-011 1.48782e-027   
     length 4.95681   
     axis 180 -30 -90   XYZ
    dof rx ry rz
    limits (-60.0 90.0)
           (-90.0 90.0)
           (-90.0 90.0)
  end
  begin
     id 19
     name lradius
     direction 1 -4.48952e-011 2.06528e-027   
     length 3.40915   
     axis 180 -30 -90   XYZ
    dof rx
    limits (-10.0 170.0)
  end
  begin
     id 20
     name lwrist
     direction 1 -4.48964e-011 1.28021e-027   
     length 1.70457   
     axis -1.61767e-015 90 90   XYZ
    dof ry
    limits (-180.0 0.0)
 end
  begin
     id 21 
     name lhand
     direction 1 -4.49094e-011 2.54887e-027   
     length 0.616403   
     axis -1.63363e-015 90 90   XYZ
    dof rx rz
    limits (-90.0 90.0)
           (-45.0 45.0)
  end
  begin
     id 22 
     name lfingers
     direction 1 -4.49002e-011 5.11407e-027   
     length 0.49696   
     axis -3.26723e-015 90 90   XYZ
    dof rx
    limits (0.0 90.0)
  end
  begin
     id 23
     name lthumb
     direction 0.707107 -6.34998e-011 0.707107   
     length 0.713539   
     axis -90 45 -2.25915e-014   XYZ
    dof rx rz
    limits (-45.0 45.0)
           (-45.0 45.0)
  end
  begin
     id 24 
     name rclavicle
     direction -0.937751 0.334612 -0.0930482   
     length 3.46287  
     axis 0 0 0   XYZ 
    dof ry rz
    limits (-10.0 20.0)
           (-20.0 0.0)
  end
  begin
     id 25 
     name rhumerus
     direction -1 -4.48962e-011 3.59972e-027  
     length 5.352   
     axis 180 30 90   XYZ
    dof rx ry rz
    limits (-90.0 60.0)
           (-90.0 90.0)
           (-90.0 90.0)
  end
  begin
     id 26 
     name rradius
     direction -1 -4.48987e-011 -3.76925e-027   
     length 3.43721   
     axis 180 30 90   XYZ
    dof rx
    limits (-10.0 170.0)
  end
  begin
     id 27 
     name rwrist
     direction -1 -4.48943e-011 1.28112e-027   
     length 1.7186   
     axis -1.61767e-015 -90 -90   XYZ
    dof ry
    limits (-180.0 0.0)
  end
  begin
     id 28
     name rhand
     direction -1 -4.49027e-011 2.55483e-027   
     length 0.72009   
     axis -1.63363e-015 -90 -90   XYZ
    dof rx rz
    limits (-90.0 90.0)
           (-45.0 45.0)
  end
  begin
     id 29
     name rfingers
     direction -1 -4.48827e-011 5.14506e-027   
     length 0.580555   
     axis -3.26723e-015 -90 -90   XYZ
    dof rx
    limits (0.0 90.0)
  end
  begin
     id 30
     name rthumb
     direction -0.707107 -6.34936e-011 0.707107   
     length 0.833564   
     axis -90 -45 2.25915e-014   XYZ
    dof rx rz
    limits (-45.0 45.0)
           (-45.0 45.0)
  end
:hierarchy
  begin
    root lhipjoint rhipjoint lowerback
    lhipjoint lfemur
    lfemur ltibia
    ltibia lfoot
    lfoot ltoes
    rhipjoint rfemur
    rfemur rtibia
    rtibia rfoot
    rfoot rtoes
    lowerback upperback
    upperback thorax
    thorax lowerneck lclavicle rclavicle
    lowerneck upperneck
    upperneck head
    lclavicle lhumerus
    lhumerus lradius
    lradius lwrist
    lwrist lhand lthumb
    lhand lfingers
    rclavicle rhumerus
    rhumerus rradius
    rradius rwrist
    rwrist rhand rthumb
    rhand rfingers
  end

#!OML:ASF H:\Terrain\Patient Classification 1\Terrain2\Thursday\justin.ASF
:FULLY-SPECIFIED
:DEGREES
802
root 18.944 17.4029 -21.7813 468.079 -80.698 252.139
lowerback 4.63889 2.37545 9.42963
upperback 3.28523 3.28401 3.92674
thorax 1.13168 1.67642 -1.30485
lowerneck -12.8778 -0.924232 -8.83145
upperneck 37.5288 -1.69414 3.60623
head 15.4411 -1.97549 2.69623
rclavicle -8.54774e-015 -3.18055e-015
rhumerus -30.818 -11.8791 -78.0416
rradius 24.268
rwrist -7.86717
rhand -21.1561 12.7245
rfingers 7.12502
rthumb 5.22359 -17.1911
lclavicle -8.54774e-015 -3.18055e-015
lhumerus -39.3062 5.97111 84.6631
lradius 28.229
lwrist 2.20215
lhand -16.9883 22.2715
lfingers 7.12502
lthumb 9.24668 52.0488
rfemur 7.45218 -4.74169 33.4753
rtibia 11.0094
rfoot -15.7525 7.32623
rtoes 21.0295
lfemur -34.5929 7.53809 -10.3507
ltibia 43.5701
lfoot -10.2811 -7.34021
ltoes -3.63463
803
root 18.8725 17.4 -21.7789 468.199 -80.6217 252.044
lowerback 4.54224 2.29452 9.39913
upperback 3.29723 3.15529 4.08066
thorax 1.17616 1.60928 -1.12162
lowerneck -12.941 -0.800249 -9.02071
upperneck 37.5282 -1.42899 3.57517
head 15.4355 -1.89474 2.76008
rclavicle -2.66371e-014 1.51076e-014
rhumerus -30.7932 -11.6939 -77.8889
rradius 24.3055
rwrist -7.52032
rhand -21.2312 12.5634
rfingers 7.12502
rthumb 5.15114 -17.3539
lclavicle -2.66371e-014 1.51076e-014
lhumerus -39.3709 6.51158 84.6505
lradius 28.1026
lwrist 2.02347
lhand -17.4699 22.1971
lfingers 7.12502
lthumb 8.78186 51.9944
rfemur 7.94914 -4.56931 33.5103
rtibia 10.5768
rfoot -15.6548 7.48539
rtoes 22.1895
lfemur -34.3851 7.33989 -10.1576
ltibia 41.9407
lfoot -10.5408 -7.19473
ltoes -2.68373
804
root 18.8024 17.3668 -21.7742 468.486 -80.6352 251.789
lowerback 4.48593 2.2169 9.23758
upperback 3.28079 3.03823 4.19477
thorax 1.16391 1.54505 -0.911403
lowerneck -13.0094 -0.717143 -9.23765
upperneck 37.605 -1.24893 3.6014
head 15.4773 -1.85126 2.84075
rclavicle -1.5207e-014 -4.6118e-014
rhumerus -30.813 -11.0406 -77.8931
rradius 24.4492
rwrist -7.97361
rhand -20.9253 12.4362
rfingers 7.12502
rthumb 5.44647 -17.4738
lclavicle -1.5207e-014 -4.6118e-014
lhumerus -39.4798 7.17909 84.5097
lradius 27.9604
lwrist 1.54758
lhand -17.1092 22.0561
lfingers 7.12502
lthumb 9.13001 51.8385
rfemur 8.61641 -4.44504 33.4833
rtibia 9.68557
rfoot -15.4862 7.31262
rtoes 20.2663
lfemur -34.3141 7.46569 -10.3133
ltibia 40.3586
lfoot -11.2314 -6.53211
ltoes -9.15084
805
root 18.7374 17.3766 -21.7709 468.654 -80.699 251.738
lowerback 4.41187 2.17801 9.07174
upperback 3.22071 2.97969 4.22301
thorax 1.1258 1.51127 -0.789385
lowerneck -12.9375 -0.693083 -9.35688
upperneck 37.5762 -1.19287 3.61533
head 15.4425 -1.84345 2.87584
rclavicle 6.36111e-015 1.35174e-014
rhumerus -30.8823 -10.4757 -78.022
rradius 24.5346
rwrist -8.55847
rhand -21.1234 12.5542
rfingers 7.12502
rthumb 5.25517 -17.3607
lclavicle 6.36111e-015 1.35174e-014
lhumerus -39.5101 7.5081 84.3497
lradius 27.8228
lwrist 1.14548
lhand -16.3096 22.1265
lfingers 7.12502
lthumb 9.90147 51.8736
rfemur 9.16076 -4.35017 33.443
rtibia 8.75602
rfoot -15.232 7.07942
rtoes 19.0427
lfemur -34.0626 6.43172 -9.73198
ltibia 38.8548
lfoot -10.92 -7.09869
ltoes 3.55289
806
root 18.6694 17.3755 -21.767 469.005 -80.8249 251.512
lowerback 4.34194 2.24179 8.98341
upperback 3.11013 3.07213 4.11255
thorax 1.0568 1.55622 -0.857714
lowerneck -12.7012 -0.707976 -9.09537
upperneck 37.46 -1.28098 3.51895
head 15.3321 -1.85346 2.77015
rclavicle 2.72335e-014 4.05521e-014
rhumerus -31.1148 -11.0468 -77.9247
rradius 24.5219
rwrist -8.30538
rhand -21.2995 12.8481
rfingers 7.12502
rthumb 5.08521 -17.0709
lclavicle 2.72335e-014 4.05521e-014
lhumerus -39.5227 7.27699 84.2424
lradius 27.7157
lwrist 1.08036
lhand -16.324 22.5683
lfingers 7.12502
lthumb 9.88762 52.3161
rfemur 9.71662 -4.24154 33.3008
rtibia 7.856
rfoot -14.9004 7.05963
rtoes 19.509
lfemur -33.8903 6.00403 -9.65725
ltibia 37.2701
lfoot -11.169 -6.83352
ltoes 3.79591
